<svg version="1" xmlns="http://www.w3.org/2000/svg" width="520" height="520" viewBox="0 0 390.000000 390.000000"><path d="M182.9.4c-.2.2-2.9.7-5.9 1-24.8 3-52.8 16.7-74 36.3-5.9 5.5-18.6 19.3-21.8 23.8C75.1 70 73 73.1 73 73.3c0 .2-2.2 4-4.9 8.5-10.7 17.8-19.8 42.6-24.5 66.7-3.5 18-4.1 24.9-4.1 47 0 15.6 1 32.9 2 34.5.2.3.6 3 1 6s.9 5.8 1.1 6.1c.2.3.6 2.1.9 4 1.8 10.4 8.1 29.8 14.3 43.9 9.5 21.5 21.9 39.7 38.7 56.6 20.4 20.5 41.5 33 66 39.3 11.2 2.8 14.2 3.2 29 3.6 66.8 1.9 126.2-49.6 149.5-129.4 1.2-4.1 2.3-8.1 2.5-9 2.9-14.4 3.7-19.3 4.9-28.6 1.4-10.2 1.5-47.2.3-54.5-.3-1.4-.8-4.6-1.1-7-11.2-80.8-64-145.8-128.8-158.5C212.5 1 183.9-.6 182.9.4z"/></svg>